<svg xmlns="http://www.w3.org/2000/svg" width="48" height="48" viewBox="0 0 48 48" role="img" aria-labelledby="title desc">
  <title id="title">Layered icon</title>
  <desc id="desc">Clean layered isometric icon for light backgrounds.</desc>

  <defs>
    <linearGradient id="purpleSideL" x1="10" y1="34" x2="39" y2="34" gradientUnits="userSpaceOnUse">
      <stop offset="0" stop-color="#4c1d95"/>
      <stop offset="1" stop-color="#7c3aed"/>
    </linearGradient>
    <linearGradient id="glassFaceL" x1="8" y1="10" x2="40" y2="27" gradientUnits="userSpaceOnUse">
      <stop offset="0" stop-color="#1a1a1a" stop-opacity="0.07"/>
      <stop offset="1" stop-color="#7c3aed" stop-opacity="0.05"/>
    </linearGradient>
    <filter id="softShadowL" x="-20%" y="-20%" width="140%" height="160%">
      <feDropShadow dx="0" dy="3" stdDeviation="2.5" flood-color="#000000" flood-opacity="0.12"/>
    </filter>
  </defs>

  <g filter="url(#softShadowL)" stroke-linejoin="round" stroke-linecap="round">
    <path d="M24 25.5 40 33.5 24 41.5 8 33.5Z" fill="#1a1a1a" fill-opacity="0.06" stroke="#1a1a1a" stroke-opacity="0.4" stroke-width="1.2"/>
    <path d="M8 33.5 24 41.5v3.6L8 37.1Z" fill="#4c1d95" stroke="#1a1a1a" stroke-opacity="0.25" stroke-width="1"/>
    <path d="M24 41.5 40 33.5v3.6l-16 8Z" fill="url(#purpleSideL)" stroke="#1a1a1a" stroke-opacity="0.25" stroke-width="1"/>
    <path d="M8 28.8v4.7M40 28.8v4.7M24 22.5v3" fill="none" stroke="#1a1a1a" stroke-opacity="0.25" stroke-width="1" stroke-dasharray="2 2"/>
    <path d="M24 6.5 40 14.5 24 22.5 8 14.5Z" fill="url(#glassFaceL)" stroke="#1a1a1a" stroke-opacity="0.75" stroke-width="1.4"/>
    <path d="M8 14.5 24 22.5v3.6l-16-8Z" fill="#1a1a1a" fill-opacity="0.03" stroke="#1a1a1a" stroke-opacity="0.4" stroke-width="1"/>
    <path d="M24 22.5 40 14.5v3.6l-16 8Z" fill="#7c3aed" fill-opacity="0.14" stroke="#1a1a1a" stroke-opacity="0.4" stroke-width="1"/>
  </g>
</svg>
